<svg id="visual" viewBox="0 0 900 600" width="900" height="600" xmlns="http://www.w3.org/2000/svg" xmlns:xlink="http://www.w3.org/1999/xlink" version="1.1"><rect x="0" y="0" width="900" height="600" fill="#121212"></rect><path d="M0 475L180 475L180 525L360 525L360 486L540 486L540 438L720 438L720 424L900 424L900 415L900 0L900 0L720 0L720 0L540 0L540 0L360 0L360 0L180 0L180 0L0 0Z" fill="#0f0f0f"></path><path d="M0 447L180 447L180 472L360 472L360 447L540 447L540 407L720 407L720 457L900 457L900 368L900 0L900 0L720 0L720 0L540 0L540 0L360 0L360 0L180 0L180 0L0 0Z" fill="#0a0a0a"></path><path d="M0 227L180 227L180 233L360 233L360 308L540 308L540 219L720 219L720 217L900 217L900 263L900 0L900 0L720 0L720 0L540 0L540 0L360 0L360 0L180 0L180 0L0 0Z" fill="#0f0f0f"></path><path d="M0 277L180 277L180 206L360 206L360 288L540 288L540 176L720 176L720 229L900 229L900 165L900 0L900 0L720 0L720 0L540 0L540 0L360 0L360 0L180 0L180 0L0 0Z" fill="#121212"></path><path d="M0 35L180 35L180 118L360 118L360 163L540 163L540 59L720 59L720 69L900 69L900 182L900 0L900 0L720 0L720 0L540 0L540 0L360 0L360 0L180 0L180 0L0 0Z" fill="#121212"></path></svg>