<?xml version="1.0" standalone="no"?><svg xmlns="http://www.w3.org/2000/svg" viewBox="0 0 1440 320"><path fill="#0099ff" fill-opacity="1" d="M0,32L18.5,64C36.9,96,74,160,111,160C147.7,160,185,96,222,85.3C258.5,75,295,117,332,165.3C369.2,213,406,267,443,245.3C480,224,517,128,554,106.7C590.8,85,628,139,665,165.3C701.5,192,738,192,775,192C812.3,192,849,192,886,186.7C923.1,181,960,171,997,170.7C1033.8,171,1071,181,1108,181.3C1144.6,181,1182,171,1218,144C1255.4,117,1292,75,1329,48C1366.2,21,1403,11,1422,5.3L1440,0L1440,320L1421.5,320C1403.1,320,1366,320,1329,320C1292.3,320,1255,320,1218,320C1181.5,320,1145,320,1108,320C1070.8,320,1034,320,997,320C960,320,923,320,886,320C849.2,320,812,320,775,320C738.5,320,702,320,665,320C627.7,320,591,320,554,320C516.9,320,480,320,443,320C406.2,320,369,320,332,320C295.4,320,258,320,222,320C184.6,320,148,320,111,320C73.8,320,37,320,18,320L0,320Z"></path></svg>